<svg xmlns="http://www.w3.org/2000/svg" version="1.1" xmlns:xlink="http://www.w3.org/1999/xlink" xmlns:svgjs="http://svgjs.dev/svgjs" viewBox="0 0 800 800"><defs><filter id="llleaves-blur-2" x="-100%" y="-100%" width="400%" height="400%"><feGaussianBlur in="SourceGraphic" stdDeviation="2"></feGaussianBlur></filter><filter id="llleaves-blur-3" x="-100%" y="-100%" width="400%" height="400%"><feGaussianBlur in="SourceGraphic" stdDeviation="4"></feGaussianBlur></filter><filter id="llleaves-blur-4" x="-100%" y="-100%" width="400%" height="400%"><feGaussianBlur in="SourceGraphic" stdDeviation="12"></feGaussianBlur></filter></defs><g fill="hsl(265, 55%, 20%)"><path d="M709 192H759C787 192 809 214 809 242H759C731 242 709 220 709 192Z " transform="matrix(0.11978428833044008,-0.5188427550215985,0.5188427550215985,0.11978428833044008,555.4948473175091,584.8084604936878)" opacity="0.82"></path><path d="M562 735H612C640 735 662 757 662 785H612C584 785 562 763 562 735Z " transform="matrix(-0.05266295654719964,-0.5010545618269453,0.5010545618269453,-0.05266295654719964,263.4282624184077,1106.6692388139622)" opacity="0.77"></path><path d="M700 293H750C778 293 800 315 800 343H750C722 343 700 321 700 293Z " transform="matrix(0.11978428833044008,-0.5188427550215985,0.5188427550215985,0.11978428833044008,495.16978765530166,669.0406625771188)" opacity="0.82"></path><path d="M325 613H375C403 613 425 635 425 663H375C347 663 325 641 325 613Z " transform="matrix(-0.2399181385372911,-0.39929083541134236,0.39929083541134236,-0.2399181385372911,210.22174895904772,940.8018356660451)" opacity="0.72"></path><path d="M535 390H585C613 390 635 412 635 440H585C557 440 535 418 535 390Z " transform="matrix(-0.06111577104896909,-0.4977480116355858,0.4977480116355858,-0.06111577104896909,414.1873012348788,731.5456317921398)" opacity="0.77"></path><path d="M527 483H577C605 483 627 505 627 533H577C549 533 527 511 527 483Z " transform="matrix(-0.07810494081743885,-0.49313518838970855,0.49313518838970855,-0.07810494081743885,371.55387514969027,832.2163136361207)" opacity="0.77"></path><path d="M92 82H142C170 82 192 104 192 132H142C114 132 92 110 92 82Z " transform="matrix(-0.38394912601121217,-0.1173850279408648,0.1173850279408648,-0.38394912601121217,183.9605779039196,164.7512304508025)" opacity="0.62"></path><path d="M693 727H743C771 727 793 749 793 777H743C715 777 693 755 693 727Z " transform="matrix(0.10088394117171927,-0.5190028847018825,0.5190028847018825,0.10088394117171927,277.75306241359704,1061.7544195723658)" opacity="0.81"></path><path d="M99 177H149C177 177 199 199 199 227H149C121 227 99 205 99 177Z " transform="matrix(-0.31275998540688443,0.1327587373233061,-0.1327587373233061,-0.31275998540688443,222.4185027649336,245.39646519101802)" filter="url(#llleaves-blur-2)" opacity="0.52"></path><path d="M-4 441H46C74 441 96 463 96 491H46C18 491 -4 469 -4 441Z " transform="matrix(-0.06279998208473045,0.25187697077182947,-0.25187697077182947,-0.06279998208473045,166.26346755557012,483.67845099598026)" filter="url(#llleaves-blur-3)" opacity="0.40"></path><path d="M698 20H748C776 20 798 42 798 70H748C720 70 698 48 698 20Z " transform="matrix(-0.026562174384321537,-0.5068364801505075,0.5068364801505075,-0.026562174384321537,745.0608648326996,425.30898499987416)" opacity="0.78"></path><path d="M617 209H667C695 209 717 231 717 259H667C639 259 617 237 617 209Z " transform="matrix(0.017967458106110955,-0.5145206811767639,0.5145206811767639,0.017967458106110955,534.6178660478613,572.9809091480715)" opacity="0.79"></path><path d="M65 666H115C143 666 165 688 165 716H115C87 716 65 694 65 666Z " transform="matrix(-0.24021910026349477,0.20156775843283659,-0.20156775843283659,-0.24021910026349477,281.908517607392,833.8111060622987)" filter="url(#llleaves-blur-2)" opacity="0.48"></path><path d="M587 24H637C665 24 687 46 687 74H637C609 74 587 52 587 24Z " transform="matrix(-0.06972126103925147,-0.4960925498051375,0.4960925498051375,-0.06972126103925147,657.1039083415515,368.42729601679594)" opacity="0.77"></path><path d="M330 134H380C408 134 430 156 430 184H380C352 184 330 162 330 134Z " transform="matrix(-0.17944532084483597,-0.44414275453012236,0.44414275453012236,-0.17944532084483597,377.5705239507482,356.30605273577544)" opacity="0.74"></path><path d="M432 434H482C510 434 532 456 532 484H482C454 484 432 462 432 434Z " transform="matrix(-0.1422008232869638,-0.4651179351987655,0.4651179351987655,-0.1422008232869638,337.0516645680832,748.4570226545213)" opacity="0.75"></path><path d="M442 731H492C520 731 542 753 542 781H492C464 781 442 759 442 731Z " transform="matrix(-0.13471205952921933,-0.46979678216175635,0.46979678216175635,-0.13471205952921933,203.1119659740881,1088.9823338276742)" opacity="0.75"></path><path d="M160 343H210C238 343 260 365 260 393H210C182 393 160 371 160 343Z " transform="matrix(-0.38386584882394625,-0.05394882680745945,0.05394882680745945,-0.38386584882394625,270.7586599878836,520.5918859967786)" filter="url(#llleaves-blur-2)" opacity="0.59"></path><path d="M79 282H129C157 282 179 304 179 332H129C101 332 79 310 79 282Z " transform="matrix(-0.27715081736371167,0.17318305162720288,-0.17318305162720288,-0.27715081736371167,217.9196522894701,369.7446872707503)" filter="url(#llleaves-blur-2)" opacity="0.50"></path><path d="M-1 732H49C77 732 99 754 99 782H49C21 782 -1 760 -1 732Z " transform="matrix(-0.06279998208473045,0.25187697077182947,-0.25187697077182947,-0.06279998208473045,242.7480659964267,792.1976148703213)" filter="url(#llleaves-blur-3)" opacity="0.40"></path><path d="M181 546H231C259 546 281 568 281 596H231C203 596 181 574 181 546Z " transform="matrix(-0.384761772769331,-0.1030966062919092,0.1030966062919092,-0.384761772769331,261.01180731703533,814.5142883047192)" filter="url(#llleaves-blur-2)" opacity="0.61"></path><path d="M621 445H671C699 445 721 467 721 495H671C643 495 621 473 621 445Z " transform="matrix(0.017967458106110955,-0.5145206811767639,0.5145206811767639,0.017967458106110955,417.11911545772045,806.7986717597364)" opacity="0.79"></path><path d="M9 20H59C87 20 109 42 109 70H59C31 70 9 48 9 20Z " transform="matrix(-0.383874283342786,-0.06768739335345929,0.06768739335345929,-0.383874283342786,78.6026500163187,66.26789895827946)" filter="url(#llleaves-blur-2)" opacity="0.60"></path><path d="M-5 337H45C73 337 95 359 95 387H45C17 387 -5 365 -5 337Z " transform="matrix(-0.06279998208473045,0.25187697077182947,-0.25187697077182947,-0.06279998208473045,139.00546261321512,373.3991298299401)" filter="url(#llleaves-blur-3)" opacity="0.40"></path><path d="M476 26H526C554 26 576 48 576 76H526C498 76 476 54 476 26Z " transform="matrix(-9.401160382129783e-17,-0.5117753346611305,0.5117753346611305,-9.401160382129783e-17,499.8994579322824,320.1938260317546)" opacity="0.79"></path></g><g fill="none" stroke-width="3" stroke="hsl(265, 55%, 20%)"><path d="M328 260H378C406 260 428 282 428 310H378C350 310 328 288 328 260Z " transform="matrix(-0.2399181385372911,-0.39929083541134236,0.39929083541134236,-0.2399181385372911,354.89116827486345,504.3086052686154)" opacity="0.72"></path><path d="M556 121H606C634 121 656 143 656 171H606C578 171 556 149 556 121Z " transform="matrix(-0.06116537987104512,-0.49815204306845673,0.49815204306845673,-0.06116537987104512,570.3360219138586,456.81028356065735)" opacity="0.77"></path><path d="M148 16H198C226 16 248 38 248 66H198C170 66 148 44 148 16Z " transform="matrix(-0.11864112294163737,-0.47584355382760113,0.47584355382760113,-0.11864112294163737,201.98135663551255,140.08130969847215)" opacity="0.75"></path><path d="M312 430H362C390 430 412 452 412 480H362C334 480 312 458 312 430Z " transform="matrix(-0.25769622216116134,-0.3820503607093252,0.3820503607093252,-0.25769622216116134,281.45311829959746,710.5540116601042)" opacity="0.71"></path><path d="M98 485H148C176 485 198 507 198 535H148C120 535 98 513 98 485Z " transform="matrix(-0.31275998540688443,0.1327587373233061,-0.1327587373233061,-0.31275998540688443,261.995433875105,649.8592994336618)" filter="url(#llleaves-blur-2)" opacity="0.52"></path><path d="M473 320H523C551 320 573 342 573 370H523C495 370 473 348 473 320Z " transform="matrix(-0.11091031883261983,-0.48040537023265584,0.48040537023265584,-0.11091031883261983,415.2662440191939,634.5160686289328)" opacity="0.76"></path><path d="M443 128H493C521 128 543 150 543 178H493C465 178 443 156 443 128Z " transform="matrix(-0.1026650269643807,-0.48300097704704176,0.48300097704704176,-0.1026650269643807,469.7147088052423,406.8272308097418)" opacity="0.76"></path><path d="M519 227H569C597 227 619 249 619 277H569C541 277 519 255 519 227Z " transform="matrix(-0.07810494081743885,-0.49313518838970855,0.49313518838970855,-0.07810494081743885,489.1716438509161,552.2763672797388)" opacity="0.77"></path><path d="M257 207H307C335 207 357 229 357 257H307C279 257 257 235 257 207Z " transform="matrix(-0.3181608329687344,-0.30724434498117525,0.30724434498117525,-0.3181608329687344,333.3946876857688,400.1373271579672)" opacity="0.68"></path><path d="M-2 536H48C76 536 98 558 98 586H48C20 586 -2 564 -2 536Z " transform="matrix(-0.06279998208473045,0.25187697077182947,-0.25187697077182947,-0.06279998208473045,192.31737974306338,584.140695352486)" filter="url(#llleaves-blur-3)" opacity="0.40"></path><path d="M680 106H730C758 106 780 128 780 156H730C702 156 680 134 680 106Z " transform="matrix(0.018004947228807338,-0.5155942291896518,0.5155942291896518,0.018004947228807338,649.3135444991262,505.02513922147205)" opacity="0.79"></path><path d="M-11 631H39C67 631 89 653 89 681H39C11 681 -11 659 -11 631Z " transform="matrix(-0.06279998208473045,0.25187697077182947,-0.25187697077182947,-0.06279998208473045,206.68049212762463,687.3735863874819)" filter="url(#llleaves-blur-3)" opacity="0.40"></path><path d="M601 319H651C679 319 701 341 701 369H651C623 369 601 347 601 319Z " transform="matrix(-9.401550528302498e-17,-0.5117965732295616,0.5117965732295616,-9.401550528302498e-17,474.94197880903084,677.1795691724446)" opacity="0.79"></path><path d="M701 511H751C779 511 801 533 801 561H751C723 561 701 539 701 511Z " transform="matrix(0.11978428833044008,-0.5188427550215985,0.5188427550215985,0.11978428833044008,382.94228277226273,861.4465304761045)" opacity="0.82"></path><path d="M199 438H249C277 438 299 460 299 488H249C221 488 199 466 199 438Z " transform="matrix(-0.3786909959755289,-0.15300109386174948,0.15300109386174948,-0.3786909959755289,272.45455153991674,676.4312035082455)" opacity="0.63"></path><path d="M202 121H252C280 121 302 143 302 171H252C224 171 202 149 202 121Z " transform="matrix(-0.300456614056756,-0.3336908757346378,0.3336908757346378,-0.300456614056756,278.99619888504543,273.9567663374151)" opacity="0.69"></path><path d="M702 396H752C780 396 802 418 802 446H752C724 446 702 424 702 396Z " transform="matrix(0.11978428833044008,-0.5188427550215985,0.5188427550215985,0.11978428833044008,443.48941531141605,760.7405663891267)" opacity="0.82"></path><path d="M112 737H162C190 737 212 759 212 787H162C134 787 112 765 112 737Z " transform="matrix(-0.3403863518520354,0.09120624809332897,-0.09120624809332897,-0.3403863518520354,286.64175004714645,1006.5989879201318)" filter="url(#llleaves-blur-2)" opacity="0.54"></path><path d="M409 637H459C487 637 509 659 509 687H459C431 687 409 665 409 637Z " transform="matrix(-0.15750999279348682,-0.45744223441348497,0.45744223441348497,-0.15750999279348682,228.47032751048343,976.2376008250778)" opacity="0.74"></path><path d="M377 522H427C455 522 477 544 477 572H427C399 572 377 550 377 522Z " transform="matrix(-0.18669205328371,-0.4398189154089222,0.4398189154089222,-0.18669205328371,266.13656002346374,836.9232300257992)" opacity="0.73"></path><path d="M83 393H133C161 393 183 415 183 443H133C105 443 83 421 83 393Z " transform="matrix(-0.31275998540688443,0.1327587373233061,-0.1327587373233061,-0.31275998540688443,230.09023026025756,531.0767618360779)" filter="url(#llleaves-blur-2)" opacity="0.52"></path><path d="M-3 227H47C75 227 97 249 97 277H47C19 277 -3 255 -3 227Z " transform="matrix(-0.06279998208473045,0.25187697077182947,-0.25187697077182947,-0.06279998208473045,113.42459579248339,255.9873778590761)" filter="url(#llleaves-blur-3)" opacity="0.40"></path><path d="M221 731H271C299 731 321 753 321 781H271C243 781 221 759 221 731Z " transform="matrix(-0.3537478247025812,-0.23860592057637267,0.23860592057637267,-0.3537478247025812,186.47958453866175,1088.0955599513484)" opacity="0.65"></path><path d="M474 554H524C552 554 574 576 574 604H524C496 604 474 582 474 554Z " transform="matrix(-0.11091031883261983,-0.48040537023265584,0.48040537023265584,-0.11091031883261983,303.962297703585,894.9494886059987)" opacity="0.76"></path><path d="M261 29H311C339 29 361 51 361 79H311C283 79 261 57 261 29Z " transform="matrix(0.05455186897899406,-0.5190263631251513,0.5190263631251513,0.05455186897899406,266.00694513877465,212.47139800705634)" opacity="0.80"></path><path d="M615 657H665C693 657 715 679 715 707H665C637 707 615 685 615 657Z " transform="matrix(-9.401550528302498e-17,-0.5117965732295616,0.5117965732295616,-9.401550528302498e-17,315.95473705743905,1022.3447211976584)" opacity="0.79"></path><path d="M273 522H323C351 522 373 544 373 572H323C295 572 273 550 273 522Z " transform="matrix(-0.29463808587854873,-0.33894234555875274,0.33894234555875274,-0.29463808587854873,232.76663871813346,817.6454105910433)" opacity="0.69"></path><path d="M373 347H423C451 347 473 369 473 397H423C395 397 373 375 373 347Z " transform="matrix(-0.18669205328371,-0.4398189154089222,0.4398189154089222,-0.18669205328371,338.35810200689025,627.4928450395142)" opacity="0.73"></path><path d="M87 578H137C165 578 187 600 187 628H137C109 628 87 606 87 578Z " transform="matrix(-0.31275998540688443,0.1327587373233061,-0.1327587373233061,-0.31275998540688443,259.90163660669674,773.4063241870583)" filter="url(#llleaves-blur-2)" opacity="0.52"></path><path d="M176 243H226C254 243 276 265 276 293H226C198 293 176 271 176 243Z " transform="matrix(-0.384761772769331,-0.1030966062919092,0.1030966062919092,-0.384761772769331,285.32627015963715,394.41598812415225)" filter="url(#llleaves-blur-2)" opacity="0.61"></path><path d="M703 617H753C781 617 803 639 803 667H753C725 667 703 645 703 617Z " transform="matrix(0.11978428833044008,-0.5188427550215985,0.5188427550215985,0.11978428833044008,329.7053821633124,955.7870814231212)" opacity="0.82"></path><path d="M329 724H379C407 724 429 746 429 774H379C351 774 329 752 329 724Z " transform="matrix(-0.2399181385372911,-0.39929083541134236,0.39929083541134236,-0.2399181385372911,170.86013878253792,1080.0299123853297)" opacity="0.72"></path><path d="M156 650H206C234 650 256 672 256 700H206C178 700 156 678 156 650Z " transform="matrix(-0.38386584882394625,-0.05394882680745945,0.05394882680745945,-0.38386584882394625,248.6609067626978,945.2229062785004)" filter="url(#llleaves-blur-2)" opacity="0.59"></path><path d="M368 29H418C446 29 468 51 468 79H418C390 79 368 57 368 29Z " transform="matrix(0.07308893228763852,-0.5200547758408526,0.5200547758408526,0.07308893228763852,359.36586840836105,267.43609395794397)" opacity="0.81"></path><path d="M243 634H293C321 634 343 656 343 684H293C265 684 243 662 243 634Z " transform="matrix(-0.33792693601924373,-0.2736478371748944,0.2736478371748944,-0.33792693601924373,211.67866755538302,961.8726671289256)" opacity="0.67"></path><path d="M-3 124H47C75 124 97 146 97 174H47C19 174 -3 152 -3 124Z " transform="matrix(-0.17174762563902346,0.23639032681340333,-0.23639032681340333,-0.17174762563902346,90.2942971002312,163.48005085998454)" filter="url(#llleaves-blur-3)" opacity="0.45"></path><path d="M597 558H647C675 558 697 580 697 608H647C619 608 597 586 597 558Z " transform="matrix(-0.0177621792288912,-0.508642263255061,0.508642263255061,-0.0177621792288912,361.953690483392,922.4468948164681)" opacity="0.78"></path><path d="M513 645H563C591 645 613 667 613 695H563C535 695 513 673 513 645Z " transform="matrix(-0.08633233589130526,-0.48961500698548904,0.48961500698548904,-0.08633233589130526,283.5630504265272,1003.4959139800048)" opacity="0.76"></path><path d="M257 335H307C335 335 357 357 357 385H307C279 385 257 363 257 335Z " transform="matrix(-0.3181608329687344,-0.30724434498117525,0.30724434498117525,-0.3181608329687344,294.06741152817835,568.8619137779651)" opacity="0.68"></path><path d="M414 227H464C492 227 514 249 514 277H464C436 277 414 255 414 227Z " transform="matrix(-0.15750999279348682,-0.45744223441348497,0.45744223441348497,-0.15750999279348682,421.80919358397966,503.9457149518157)" opacity="0.74"></path></g></svg>