<svg xmlns="http://www.w3.org/2000/svg" version="1.1" xmlns:xlink="http://www.w3.org/1999/xlink" xmlns:svgjs="http://svgjs.dev/svgjs" viewBox="0 0 800 800"><g fill="none" stroke-width="3" stroke="hsl(335, 77%, 50%)" stroke-linecap="square"><line x1="246" y1="400" x2="554" y2="400" transform="rotate(0, 400, 400)" opacity="0.94"></line><line x1="428" y1="400" x2="372" y2="400" transform="rotate(5, 400, 400)" opacity="0.54"></line><line x1="102.5" y1="400" x2="697.5" y2="400" transform="rotate(10, 400, 400)" opacity="0.31"></line><line x1="42.5" y1="400" x2="757.5" y2="400" transform="rotate(15, 400, 400)" opacity="0.63"></line><line x1="734.5" y1="400" x2="65.5" y2="400" transform="rotate(20, 400, 400)" opacity="0.22"></line><line x1="552.5" y1="400" x2="247.5" y2="400" transform="rotate(25, 400, 400)" opacity="0.58"></line><line x1="610.5" y1="400" x2="189.5" y2="400" transform="rotate(30, 400, 400)" opacity="0.20"></line><line x1="59.5" y1="400" x2="740.5" y2="400" transform="rotate(35, 400, 400)" opacity="0.13"></line><line x1="251" y1="400" x2="549" y2="400" transform="rotate(40, 400, 400)" opacity="0.99"></line><line x1="66" y1="400" x2="734" y2="400" transform="rotate(45, 400, 400)" opacity="0.58"></line><line x1="407" y1="400" x2="393" y2="400" transform="rotate(50, 400, 400)" opacity="0.67"></line><line x1="733" y1="400" x2="67" y2="400" transform="rotate(55, 400, 400)" opacity="0.60"></line><line x1="530.5" y1="400" x2="269.5" y2="400" transform="rotate(60, 400, 400)" opacity="0.67"></line><line x1="326.5" y1="400" x2="473.5" y2="400" transform="rotate(65, 400, 400)" opacity="0.69"></line><line x1="451" y1="400" x2="349" y2="400" transform="rotate(70, 400, 400)" opacity="0.26"></line><line x1="186" y1="400" x2="614" y2="400" transform="rotate(75, 400, 400)" opacity="0.42"></line><line x1="463" y1="400" x2="337" y2="400" transform="rotate(80, 400, 400)" opacity="0.64"></line><line x1="237" y1="400" x2="563" y2="400" transform="rotate(85, 400, 400)" opacity="0.86"></line><line x1="422" y1="400" x2="378" y2="400" transform="rotate(90, 400, 400)" opacity="0.82"></line><line x1="659" y1="400" x2="141" y2="400" transform="rotate(95, 400, 400)" opacity="0.24"></line><line x1="732" y1="400" x2="68" y2="400" transform="rotate(100, 400, 400)" opacity="0.74"></line><line x1="482.5" y1="400" x2="317.5" y2="400" transform="rotate(105, 400, 400)" opacity="0.20"></line><line x1="510.5" y1="400" x2="289.5" y2="400" transform="rotate(110, 400, 400)" opacity="0.83"></line><line x1="424" y1="400" x2="376" y2="400" transform="rotate(115, 400, 400)" opacity="0.75"></line><line x1="415.5" y1="400" x2="384.5" y2="400" transform="rotate(120, 400, 400)" opacity="0.81"></line><line x1="635" y1="400" x2="165" y2="400" transform="rotate(125, 400, 400)" opacity="0.27"></line><line x1="194.5" y1="400" x2="605.5" y2="400" transform="rotate(130, 400, 400)" opacity="0.52"></line><line x1="674.5" y1="400" x2="125.5" y2="400" transform="rotate(135, 400, 400)" opacity="0.72"></line><line x1="352" y1="400" x2="448" y2="400" transform="rotate(140, 400, 400)" opacity="0.31"></line><line x1="448" y1="400" x2="352" y2="400" transform="rotate(145, 400, 400)" opacity="0.74"></line><line x1="461.5" y1="400" x2="338.5" y2="400" transform="rotate(150, 400, 400)" opacity="0.16"></line><line x1="348.5" y1="400" x2="451.5" y2="400" transform="rotate(155, 400, 400)" opacity="0.11"></line><line x1="327" y1="400" x2="473" y2="400" transform="rotate(160, 400, 400)" opacity="0.19"></line><line x1="707.5" y1="400" x2="92.5" y2="400" transform="rotate(165, 400, 400)" opacity="0.13"></line><line x1="455.5" y1="400" x2="344.5" y2="400" transform="rotate(170, 400, 400)" opacity="0.48"></line><line x1="516.5" y1="400" x2="283.5" y2="400" transform="rotate(175, 400, 400)" opacity="0.31"></line><line x1="550" y1="400" x2="250" y2="400" transform="rotate(180, 400, 400)" opacity="0.72"></line><line x1="303.5" y1="400" x2="496.5" y2="400" transform="rotate(185, 400, 400)" opacity="0.71"></line><line x1="229.5" y1="400" x2="570.5" y2="400" transform="rotate(190, 400, 400)" opacity="0.43"></line><line x1="354.5" y1="400" x2="445.5" y2="400" transform="rotate(195, 400, 400)" opacity="0.13"></line><line x1="340" y1="400" x2="460" y2="400" transform="rotate(200, 400, 400)" opacity="0.52"></line><line x1="43" y1="400" x2="757" y2="400" transform="rotate(205, 400, 400)" opacity="0.91"></line><line x1="650.5" y1="400" x2="149.5" y2="400" transform="rotate(210, 400, 400)" opacity="0.81"></line><line x1="702.5" y1="400" x2="97.5" y2="400" transform="rotate(215, 400, 400)" opacity="0.85"></line><line x1="359" y1="400" x2="441" y2="400" transform="rotate(220, 400, 400)" opacity="0.93"></line><line x1="119.5" y1="400" x2="680.5" y2="400" transform="rotate(225, 400, 400)" opacity="0.43"></line><line x1="675" y1="400" x2="125" y2="400" transform="rotate(230, 400, 400)" opacity="0.37"></line><line x1="583" y1="400" x2="217" y2="400" transform="rotate(235, 400, 400)" opacity="0.81"></line><line x1="268" y1="400" x2="532" y2="400" transform="rotate(240, 400, 400)" opacity="0.61"></line><line x1="353" y1="400" x2="447" y2="400" transform="rotate(245, 400, 400)" opacity="0.40"></line><line x1="128.5" y1="400" x2="671.5" y2="400" transform="rotate(250, 400, 400)" opacity="0.27"></line><line x1="321" y1="400" x2="479" y2="400" transform="rotate(255, 400, 400)" opacity="0.48"></line><line x1="175.5" y1="400" x2="624.5" y2="400" transform="rotate(260, 400, 400)" opacity="0.19"></line><line x1="717.5" y1="400" x2="82.5" y2="400" transform="rotate(265, 400, 400)" opacity="0.30"></line><line x1="601.5" y1="400" x2="198.5" y2="400" transform="rotate(270, 400, 400)" opacity="0.81"></line><line x1="460.5" y1="400" x2="339.5" y2="400" transform="rotate(275, 400, 400)" opacity="0.96"></line><line x1="724.5" y1="400" x2="75.5" y2="400" transform="rotate(280, 400, 400)" opacity="0.31"></line><line x1="342" y1="400" x2="458" y2="400" transform="rotate(285, 400, 400)" opacity="0.92"></line><line x1="43" y1="400" x2="757" y2="400" transform="rotate(290, 400, 400)" opacity="0.80"></line><line x1="349" y1="400" x2="451" y2="400" transform="rotate(295, 400, 400)" opacity="0.18"></line><line x1="360" y1="400" x2="440" y2="400" transform="rotate(300, 400, 400)" opacity="0.26"></line><line x1="156" y1="400" x2="644" y2="400" transform="rotate(305, 400, 400)" opacity="0.69"></line><line x1="95.5" y1="400" x2="704.5" y2="400" transform="rotate(310, 400, 400)" opacity="0.61"></line><line x1="666.5" y1="400" x2="133.5" y2="400" transform="rotate(315, 400, 400)" opacity="0.13"></line><line x1="232.5" y1="400" x2="567.5" y2="400" transform="rotate(320, 400, 400)" opacity="0.31"></line><line x1="563" y1="400" x2="237" y2="400" transform="rotate(325, 400, 400)" opacity="0.25"></line><line x1="156" y1="400" x2="644" y2="400" transform="rotate(330, 400, 400)" opacity="0.92"></line><line x1="307.5" y1="400" x2="492.5" y2="400" transform="rotate(335, 400, 400)" opacity="0.63"></line></g></svg>