<svg class="border shadow-md" viewBox="0 0 1074.7733333333333 604.5600000000001" style="width: 1074.77px; height: 604.56px;" xmlns="http://www.w3.org/2000/svg" preserveAspectRatio="none"><rect class="bg" id="bg" x="0" y="0" width="1074.7733333333333" height="604.5600000000001" fill="#ffffff"/><path d="M -10 -60.456 S -268.69 -107.46&#10;                0.00 -60.46 268.69 -90.68&#10;                537.39 -60.46 626.77 -95.46&#10;                1074.77 -60.46 1343.47 -90.68&#10;                1612.16 -60.46 V 604.56 H 0 V -60.46 Z" fill="#070708"/><path d="M -10 0 S -268.69 -30.23&#10;                0.00 0.00 268.69 -30.23&#10;                537.39 0.00 562.77 -30.23&#10;                1074.77 0.00 1343.47 -30.23&#10;                1612.16 0.00 V 604.56 H 0 V 0.00 Z" fill="#0a0812"/><path d="M -10 60.456 S -395.00 20.46&#10;                0.00 60.46 200.39 30.23&#10;                537.39 60.46 806.08 30.23&#10;                1074.77 60.46 1343.47 30.23&#10;                1612.16 60.46 V 604.56 H 0 V 60.46 Z" fill="#0d091c"/><path d="M -10 120.912 S -268.69 90.68&#10;                0.00 120.91 267.39 78.91&#10;                537.39 120.91 779.77 74.91&#10;                1074.77 120.91 1203.16 78.91&#10;                1612.16 120.91 V 604.56 H 0 V 120.91 Z" fill="#100a26"/><path d="M -10 181.368 S -268.69 151.14&#10;                0.00 181.37 268.69 144.37&#10;                537.39 181.37 806.08 134.37&#10;                1074.77 181.37 1343.47 151.14&#10;                1612.16 181.37 V 604.56 H 0 V 181.37 Z" fill="#130b30"/><path d="M -10 241.824 S -274.00 189.82&#10;                0.00 241.82 161.39 211.60&#10;                537.39 241.82 710.77 211.60&#10;                1074.77 241.82 1343.47 206.82&#10;                1612.16 241.82 V 604.56 H 0 V 241.82 Z" fill="#160c3a"/><path d="M -10 302.28000000000003 S -268.69 250.28&#10;                0.00 302.28 268.69 272.05&#10;                537.39 302.28 731.77 272.05&#10;                1074.77 302.28 1337.16 255.28&#10;                1612.16 302.28 V 604.56 H 0 V 302.28 Z" fill="#190d44"/><path d="M -10 362.736 S -414.00 317.74&#10;                0.00 362.74 87.39 314.74&#10;                537.39 362.74 773.77 321.74&#10;                1074.77 362.74 1343.47 332.51&#10;                1612.16 362.74 V 604.56 H 0 V 362.74 Z" fill="#1c0e4e"/><path d="M -10 423.192 S -268.69 392.96&#10;                0.00 423.19 268.69 368.19&#10;                537.39 423.19 778.77 385.19&#10;                1074.77 423.19 1343.47 392.19&#10;                1612.16 423.19 V 604.56 H 0 V 423.19 Z" fill="#1f0f58"/><path d="M -10 483.648 S -268.69 453.42&#10;                0.00 483.65 268.69 435.65&#10;                537.39 483.65 806.08 441.65&#10;                1074.77 483.65 1211.16 446.65&#10;                1612.16 483.65 V 604.56 H 0 V 483.65 Z" fill="#221062"/><path d="M -10 544.104 S -268.69 496.10&#10;                0.00 544.10 155.39 496.10&#10;                537.39 544.10 543.77 513.88&#10;                1074.77 544.10 1235.16 498.10&#10;                1612.16 544.10 V 604.56 H 0 V 544.10 Z" fill="#25116c"/></svg>